<svg viewBox="0 0 592 96" fill="none" xmlns="http://www.w3.org/2000/svg">
<path d="M0.264038 2.304H13.832L66.312 77.568H66.568V2.304H77.32V92.928H63.752L11.272 17.664H11.016V92.928H0.264038V2.304Z" fill="black"/>
<path d="M142.001 95.232C135.089 95.232 128.732 94.0373 122.929 91.648C117.212 89.2587 112.22 85.9733 107.953 81.792C103.772 77.5253 100.486 72.4907 98.097 66.688C95.793 60.8 94.641 54.4427 94.641 47.616C94.641 40.7893 95.793 34.4747 98.097 28.672C100.486 22.784 103.772 17.7493 107.953 13.568C112.22 9.30133 117.212 5.97333 122.929 3.584C128.732 1.19467 135.089 0 142.001 0C148.913 0 155.228 1.19467 160.945 3.584C166.748 5.97333 171.74 9.30133 175.921 13.568C180.188 17.7493 183.473 22.784 185.777 28.672C188.166 34.4747 189.361 40.7893 189.361 47.616C189.361 54.4427 188.166 60.8 185.777 66.688C183.473 72.4907 180.188 77.5253 175.921 81.792C171.74 85.9733 166.748 89.2587 160.945 91.648C155.228 94.0373 148.913 95.232 142.001 95.232ZM142.001 85.248C147.292 85.248 152.113 84.2667 156.465 82.304C160.902 80.3413 164.7 77.6533 167.857 74.24C171.014 70.8267 173.446 66.8587 175.153 62.336C176.945 57.728 177.841 52.8213 177.841 47.616C177.841 42.4107 176.945 37.5467 175.153 33.024C173.446 28.416 171.014 24.4053 167.857 20.992C164.7 17.5787 160.902 14.8907 156.465 12.928C152.113 10.9653 147.292 9.984 142.001 9.984C136.71 9.984 131.846 10.9653 127.409 12.928C123.057 14.8907 119.302 17.5787 116.145 20.992C112.988 24.4053 110.513 28.416 108.721 33.024C107.014 37.5467 106.161 42.4107 106.161 47.616C106.161 52.8213 107.014 57.728 108.721 62.336C110.513 66.8587 112.988 70.8267 116.145 74.24C119.302 77.6533 123.057 80.3413 127.409 82.304C131.846 84.2667 136.71 85.248 142.001 85.248Z" fill="black"/>
<path d="M196.143 2.304H208.047L228.655 77.568H228.911L251.183 2.304H263.215L285.359 77.568H285.615L306.607 2.304H317.871L291.247 92.928H279.599L257.199 16.128H256.943L234.415 92.928H222.639L196.143 2.304Z" fill="black"/>
<path d="M393.377 20.992C390.646 17.3227 387.276 14.592 383.265 12.8C379.254 10.9227 375.073 9.984 370.721 9.984C365.686 9.984 361.036 11.008 356.769 13.056C352.588 15.104 348.961 17.8773 345.889 21.376C342.817 24.7893 340.428 28.8 338.721 33.408C337.014 37.9307 336.161 42.6667 336.161 47.616C336.161 52.9067 337.014 57.856 338.721 62.464C340.428 66.9867 342.774 70.9547 345.761 74.368C348.833 77.696 352.46 80.3413 356.641 82.304C360.908 84.2667 365.601 85.248 370.721 85.248C376.268 85.248 381.217 84.1813 385.569 82.048C389.921 79.8293 393.718 76.672 396.961 72.576L405.025 79.36C400.929 84.8213 395.98 88.832 390.177 91.392C384.46 93.952 377.974 95.232 370.721 95.232C364.236 95.232 358.177 94.0373 352.545 91.648C346.913 89.2587 342.006 85.9733 337.825 81.792C333.729 77.5253 330.486 72.4907 328.097 66.688C325.793 60.8853 324.641 54.528 324.641 47.616C324.641 40.96 325.75 34.7307 327.969 28.928C330.273 23.1253 333.473 18.0907 337.569 13.824C341.665 9.55733 346.529 6.18666 352.161 3.712C357.793 1.23733 363.98 0 370.721 0C376.865 0 382.753 1.10933 388.385 3.328C394.102 5.54666 398.881 9.17333 402.721 14.208L393.377 20.992Z" fill="#E30613"/>
<path d="M420.014 2.304H443.182C447.534 2.304 451.843 2.56 456.11 3.072C460.462 3.584 464.345 4.69333 467.758 6.39999C471.171 8.10666 473.945 10.624 476.078 13.952C478.211 17.1947 479.278 21.632 479.278 27.264C479.278 33.92 477.273 39.296 473.262 43.392C469.251 47.488 463.705 50.0907 456.622 51.2L482.35 92.928H469.166L444.59 52.224H430.766V92.928H420.014V2.304ZM430.766 42.24H440.366C443.353 42.24 446.425 42.1547 449.582 41.984C452.825 41.8133 455.769 41.2587 458.414 40.32C461.145 39.3813 463.363 37.9307 465.07 35.968C466.862 33.92 467.758 31.0187 467.758 27.264C467.758 24.0213 467.118 21.4187 465.838 19.456C464.558 17.4933 462.851 16 460.718 14.976C458.67 13.8667 456.323 13.1413 453.678 12.8C451.118 12.4587 448.515 12.288 445.87 12.288H430.766V42.24Z" fill="#E30613"/>
<path d="M498.264 2.304H514.264L544.984 73.344H545.24L576.216 2.304H591.832V92.928H581.08V16.896H580.824L548.312 92.928H541.784L509.272 16.896H509.016V92.928H498.264V2.304Z" fill="#E30613"/>
</svg>