<svg viewBox="0 0 592 96" fill="none" xmlns="http://www.w3.org/2000/svg">
<path d="M0.264038 2.37627H13.832L66.312 77.6403H66.568V2.37627H77.32V93.0003H63.752L11.272 17.7363H11.016V93.0003H0.264038V2.37627Z" fill="white"/>
<path d="M142.001 95.3043C135.089 95.3043 128.732 94.1096 122.929 91.7203C117.212 89.3309 112.22 86.0456 107.953 81.8643C103.772 77.5976 100.486 72.5629 98.097 66.7603C95.793 60.8723 94.641 54.5149 94.641 47.6883C94.641 40.8616 95.793 34.5469 98.097 28.7443C100.486 22.8563 103.772 17.8216 107.953 13.6403C112.22 9.3736 117.212 6.0456 122.929 3.65627C128.732 1.26693 135.089 0.0722656 142.001 0.0722656C148.913 0.0722656 155.228 1.26693 160.945 3.65627C166.748 6.0456 171.74 9.3736 175.921 13.6403C180.188 17.8216 183.473 22.8563 185.777 28.7443C188.166 34.5469 189.361 40.8616 189.361 47.6883C189.361 54.5149 188.166 60.8723 185.777 66.7603C183.473 72.5629 180.188 77.5976 175.921 81.8643C171.74 86.0456 166.748 89.3309 160.945 91.7203C155.228 94.1096 148.913 95.3043 142.001 95.3043ZM142.001 85.3203C147.292 85.3203 152.113 84.3389 156.465 82.3763C160.902 80.4136 164.7 77.7256 167.857 74.3123C171.014 70.8989 173.446 66.9309 175.153 62.4083C176.945 57.8003 177.841 52.8936 177.841 47.6883C177.841 42.4829 176.945 37.6189 175.153 33.0963C173.446 28.4883 171.014 24.4776 167.857 21.0643C164.7 17.6509 160.902 14.9629 156.465 13.0003C152.113 11.0376 147.292 10.0563 142.001 10.0563C136.71 10.0563 131.846 11.0376 127.409 13.0003C123.057 14.9629 119.302 17.6509 116.145 21.0643C112.988 24.4776 110.513 28.4883 108.721 33.0963C107.014 37.6189 106.161 42.4829 106.161 47.6883C106.161 52.8936 107.014 57.8003 108.721 62.4083C110.513 66.9309 112.988 70.8989 116.145 74.3123C119.302 77.7256 123.057 80.4136 127.409 82.3763C131.846 84.3389 136.71 85.3203 142.001 85.3203Z" fill="white"/>
<path d="M196.143 2.37627H208.047L228.655 77.6403H228.911L251.183 2.37627H263.215L285.359 77.6403H285.615L306.607 2.37627H317.871L291.247 93.0003H279.599L257.199 16.2003H256.943L234.415 93.0003H222.639L196.143 2.37627Z" fill="white"/>
<path d="M393.377 21.0643C390.646 17.3949 387.276 14.6643 383.265 12.8723C379.254 10.9949 375.073 10.0563 370.721 10.0563C365.686 10.0563 361.036 11.0803 356.769 13.1283C352.588 15.1763 348.961 17.9496 345.889 21.4483C342.817 24.8616 340.428 28.8723 338.721 33.4803C337.014 38.0029 336.161 42.7389 336.161 47.6883C336.161 52.9789 337.014 57.9283 338.721 62.5363C340.428 67.0589 342.774 71.0269 345.761 74.4403C348.833 77.7683 352.46 80.4136 356.641 82.3763C360.908 84.3389 365.601 85.3203 370.721 85.3203C376.268 85.3203 381.217 84.2536 385.569 82.1203C389.921 79.9016 393.718 76.7443 396.961 72.6483L405.025 79.4323C400.929 84.8936 395.98 88.9043 390.177 91.4643C384.46 94.0243 377.974 95.3043 370.721 95.3043C364.236 95.3043 358.177 94.1096 352.545 91.7203C346.913 89.3309 342.006 86.0456 337.825 81.8643C333.729 77.5976 330.486 72.5629 328.097 66.7603C325.793 60.9576 324.641 54.6003 324.641 47.6883C324.641 41.0323 325.75 34.8029 327.969 29.0003C330.273 23.1976 333.473 18.1629 337.569 13.8963C341.665 9.6296 346.529 6.25893 352.161 3.78426C357.793 1.3096 363.98 0.0722656 370.721 0.0722656C376.865 0.0722656 382.753 1.1816 388.385 3.40026C394.102 5.61893 398.881 9.2456 402.721 14.2803L393.377 21.0643Z" fill="#E30613"/>
<path d="M420.014 2.37627H443.182C447.534 2.37627 451.843 2.63227 456.11 3.14426C460.462 3.65626 464.345 4.76559 467.758 6.47226C471.171 8.17893 473.945 10.6963 476.078 14.0243C478.211 17.2669 479.278 21.7043 479.278 27.3363C479.278 33.9923 477.273 39.3683 473.262 43.4643C469.251 47.5603 463.705 50.1629 456.622 51.2723L482.35 93.0003H469.166L444.59 52.2963H430.766V93.0003H420.014V2.37627ZM430.766 42.3123H440.366C443.353 42.3123 446.425 42.2269 449.582 42.0563C452.825 41.8856 455.769 41.3309 458.414 40.3923C461.145 39.4536 463.363 38.0029 465.07 36.0403C466.862 33.9923 467.758 31.0909 467.758 27.3363C467.758 24.0936 467.118 21.4909 465.838 19.5283C464.558 17.5656 462.851 16.0723 460.718 15.0483C458.67 13.9389 456.323 13.2136 453.678 12.8723C451.118 12.5309 448.515 12.3603 445.87 12.3603H430.766V42.3123Z" fill="#E30613"/>
<path d="M498.264 2.37627H514.264L544.984 73.4163H545.24L576.216 2.37627H591.832V93.0003H581.08V16.9683H580.824L548.312 93.0003H541.784L509.272 16.9683H509.016V93.0003H498.264V2.37627Z" fill="#E30613"/>
</svg>